<svg xmlns:dc="http://purl.org/dc/elements/1.1/" xmlns:cc="http://creativecommons.org/ns#" xmlns:rdf="http://www.w3.org/1999/02/22-rdf-syntax-ns#" xmlns:svg="http://www.w3.org/2000/svg" xmlns="http://www.w3.org/2000/svg" xml:space="preserve" width="40" viewBox="0 0 40 40" version="1.0" id="Layer_1" height="40" enable-background="new 0 0 32 32"><metadata id="metadata3405"><rdf:RDF><cc:Work rdf:about=""><dc:format>image/svg+xml</dc:format><dc:type rdf:resource="http://purl.org/dc/dcmitype/StillImage" /><dc:title></dc:title></cc:Work></rdf:RDF></metadata><defs id="defs3403" /><g transform="scale(1.25,1.25)" id="g3379"><circle style="clip-rule:evenodd;fill:#e02f2f;fill-rule:evenodd" id="circle3381" r="16" cy="16" cx="16" /><g id="g3383"><path style="fill:#ffffff" id="path3385" d="m 19,5.998 c 0,0 -4.592,0 -6.164,0 -2.82,0 -5.475,1.979 -5.475,4.453 0,2.528 1.922,4.494 4.791,4.494 0.2,0 0.394,-0.045 0.584,-0.059 -0.188,0.355 -0.318,0.737 -0.318,1.154 0,0.703 0.377,1.264 0.854,1.729 -0.358,0 -0.709,0.005 -1.09,0.005 C 8.689,17.775 6,19.998 6,22.305 6,24.577 8.948,26 12.441,26 c 3.983,0 6.183,-2.262 6.183,-4.534 0,-1.821 -0.538,-2.913 -2.199,-4.091 -0.569,-0.401 -1.656,-1.38 -1.656,-1.956 0,-0.674 0.192,-1.006 1.208,-1.8 1.039,-0.812 1.776,-1.781 1.776,-3.111 0,-1.581 -0.68,-3.51 -2.003,-3.51 l 2.25,0 1,-1 z m -2.069,15.074 c 0.048,0.212 0.077,0.429 0.077,0.649 0,1.836 -1.185,3.271 -4.58,3.271 -2.415,0 -4.158,-1.528 -4.158,-3.364 0,-1.799 2.163,-3.298 4.579,-3.271 0.562,0.006 1.088,0.097 1.564,0.249 1.311,0.913 2.251,1.428 2.518,2.466 z M 13.063,14.223 C 11.442,14.176 9.901,12.41 9.622,10.283 9.343,8.153 10.43,6.524 12.05,6.572 c 1.62,0.05 3.162,1.758 3.441,3.886 0.28,2.128 -0.807,3.813 -2.428,3.765 z" /><polygon style="fill:#ffffff" id="polygon3387" points="22,18.991 24,18.991 24,15.991 27,15.991 27,13.991 24,13.991 24,10.991 22,10.991 22,13.991 19,13.991 19,15.991 22,15.991 " /></g></g><g transform="scale(1.25,1.25)" id="g3389" /><g transform="scale(1.25,1.25)" id="g3391" /><g transform="scale(1.25,1.25)" id="g3393" /><g transform="scale(1.25,1.25)" id="g3395" /><g transform="scale(1.25,1.25)" id="g3397" /><g transform="scale(1.25,1.25)" id="g3399" /></svg> 
